<svg width="104" height="95" viewBox="0 0 104 95" fill="none" xmlns="http://www.w3.org/2000/svg">
<path d="M0 39.4524V94C0 94.5523 0.447713 95 0.999998 95H103C103.552 95 104 94.5523 104 94V24.75C104 24.1977 103.552 23.75 103 23.75H94.5C93.9477 23.75 93.5 24.1977 93.5 24.75V41.9762C93.5 42.5285 93.0523 42.9762 92.5 42.9762H82.5C81.9477 42.9762 81.5 42.5285 81.5 41.9762V5.52381C81.5 4.97152 81.0523 4.52381 80.5 4.52381H71.5C70.9477 4.52381 70.5 4.97152 70.5 5.52381V41.9762C70.5 42.5285 70.0523 42.9762 69.5 42.9762H61C60.4477 42.9762 60 42.5285 60 41.9762V24.75C60 24.1977 59.5523 23.75 59 23.75H49C48.4477 23.75 48 24.1977 48 24.75V64.5952C48 65.1475 47.5523 65.5952 47 65.5952H37.5C36.9477 65.5952 36.5 65.1475 36.5 64.5952V1C36.5 0.447715 36.0523 0 35.5 0H25C24.4477 0 24 0.447716 24 1V64.5952C24 65.1475 23.5523 65.5952 23 65.5952H13.5C12.9477 65.5952 12.5 65.1475 12.5 64.5952V39.4524C12.5 38.9001 12.0523 38.4524 11.5 38.4524H1C0.447715 38.4524 0 38.9001 0 39.4524Z" fill="#67836E"/>
</svg>
