<svg width="24" height="24" viewBox="0 0 24 24" fill="none" xmlns="http://www.w3.org/2000/svg">
<path d="M16.1111 3C19.6333 3 22 6.3525 22 9.48C22 15.8138 12.1778 21 12 21C11.8222 21 2 15.8138 2 9.48C2 6.3525 4.36667 3 7.88889 3C9.91111 3 11.2333 4.02375 12 4.92375C12.7667 4.02375 14.0889 3 16.1111 3Z" stroke="#41644A" stroke-width="2" stroke-linecap="round" stroke-linejoin="round"/>
<path fill-rule="evenodd" clip-rule="evenodd" d="M15.9804 6.03516C17.3434 6.47616 18.2984 7.68316 18.4154 9.11016C18.4484 9.52316 18.1414 9.88516 17.7284 9.91816C17.7074 9.92016 17.6874 9.92116 17.6664 9.92116C17.2794 9.92116 16.9514 9.62416 16.9194 9.23216C16.8534 8.41016 16.3034 7.71616 15.5204 7.46316C15.1254 7.33516 14.9094 6.91216 15.0364 6.51916C15.1654 6.12516 15.5844 5.91116 15.9804 6.03516Z" fill="#41644A"/>
</svg>
