<svg width="32" height="32" viewBox="0 0 32 32" fill="none" xmlns="http://www.w3.org/2000/svg">
<path d="M20.7933 5.60645H11.2067C8.11334 5.60645 5.60623 8.114 5.60623 11.2069V20.7936C5.60623 23.8869 8.11379 26.394 11.2071 26.394H20.7929C23.8862 26.394 26.3938 23.8864 26.3938 20.7931V11.2069C26.3938 8.11356 23.8867 5.60645 20.7933 5.60645Z" stroke="#41644A" stroke-width="2" stroke-miterlimit="10"/>
<path d="M16 21.018C18.7712 21.018 21.0178 18.7714 21.0178 16.0002C21.0178 13.229 18.7712 10.9824 16 10.9824C13.2287 10.9824 10.9822 13.229 10.9822 16.0002C10.9822 18.7714 13.2287 21.018 16 21.018Z" stroke="#41644A" stroke-width="2" stroke-miterlimit="10"/>
<path d="M22.0929 10.9823C22.6866 10.9823 23.168 10.5009 23.168 9.90714C23.168 9.31338 22.6866 8.83203 22.0929 8.83203C21.4991 8.83203 21.0178 9.31338 21.0178 9.90714C21.0178 10.5009 21.4991 10.9823 22.0929 10.9823Z" fill="#41644A"/>
</svg>
