<svg width="306" height="299" viewBox="0 0 306 299" fill="none" xmlns="http://www.w3.org/2000/svg">
<g clip-path="url(#clip0_40_5023)">
<path d="M194.261 67.2441H111.808C109.929 67.2463 108.127 67.9945 106.799 69.3245C105.47 70.6545 104.723 72.4577 104.72 74.3386V257.78L103.775 258.069L83.5482 264.27C82.5896 264.562 81.5542 264.462 80.6693 263.991C79.7843 263.52 79.1222 262.717 78.8282 261.758L18.6615 65.0258C18.3687 64.0662 18.4685 63.0295 18.939 62.1435C19.4094 61.2575 20.2121 60.5947 21.1705 60.3008L52.3405 50.7468L142.704 23.0591L173.874 13.5051C174.348 13.3589 174.846 13.3079 175.341 13.3548C175.835 13.4017 176.315 13.5457 176.753 13.7786C177.192 14.0114 177.58 14.3285 177.896 14.7117C178.212 15.0949 178.449 15.5367 178.594 16.0118L193.973 66.2981L194.261 67.2441Z" fill="#F7F7F7"/>
<path d="M212.254 66.2987L193.718 5.6922C193.41 4.68238 192.906 3.74329 192.235 2.92858C191.564 2.11388 190.739 1.43953 189.807 0.944077C188.876 0.44862 187.856 0.141758 186.806 0.0410394C185.755 -0.0596792 184.696 0.0477186 183.687 0.357085L139.864 13.7847L49.5057 41.4772L5.68253 54.9096C3.64673 55.5354 1.94213 56.9441 0.942889 58.8267C-0.0563564 60.7092 -0.26861 62.9117 0.352726 64.9508L63.7039 272.079C64.2086 273.725 65.2271 275.166 66.6098 276.19C67.9925 277.214 69.6667 277.767 71.3867 277.769C72.1827 277.769 72.9743 277.65 73.7348 277.414L103.776 268.21L104.721 267.917V266.928L103.776 267.217L73.4561 276.511C71.6591 277.059 69.7183 276.872 68.0592 275.989C66.4002 275.107 65.1585 273.602 64.6064 271.805L1.2601 64.6717C0.986568 63.7811 0.891237 62.8452 0.979557 61.9176C1.06788 60.99 1.33811 60.089 1.77479 59.2661C2.21147 58.4432 2.80603 57.7146 3.5244 57.1221C4.24277 56.5296 5.07084 56.0847 5.96121 55.813L49.7844 42.3806L140.143 14.6928L183.966 1.26047C184.642 1.05416 185.344 0.948965 186.05 0.948306C187.565 0.951712 189.04 1.44074 190.257 2.34377C191.475 3.2468 192.371 4.51637 192.816 5.96653L211.266 66.2987L211.559 67.2447H212.542L212.254 66.2987Z" fill="#7A8499"/>
<path d="M57.9652 60.4557C57.0546 60.4551 56.1681 60.1623 55.4358 59.6204C54.7035 59.0784 54.1641 58.3158 53.8965 57.4445L47.8107 37.5457C47.6471 37.0112 47.5904 36.4497 47.6437 35.8932C47.697 35.3367 47.8592 34.7962 48.1212 34.3025C48.3832 33.8089 48.7398 33.3717 49.1706 33.016C49.6014 32.6603 50.098 32.393 50.632 32.2294L133.761 6.7534C134.839 6.42399 136.004 6.53633 137 7.06578C137.996 7.59522 138.741 8.4985 139.072 9.57737L145.158 29.4763C145.487 30.5558 145.374 31.7218 144.846 32.7185C144.317 33.7152 143.414 34.4612 142.337 34.7929L59.2076 60.2689C58.805 60.3926 58.3863 60.4555 57.9652 60.4557Z" fill="#41644A"/>
<path d="M89.8453 21.2621C95.0642 21.2621 99.295 17.027 99.295 11.8027C99.295 6.57839 95.0642 2.34326 89.8453 2.34326C84.6263 2.34326 80.3955 6.57839 80.3955 11.8027C80.3955 17.027 84.6263 21.2621 89.8453 21.2621Z" fill="#41644A"/>
<path d="M89.8452 17.793C93.15 17.793 95.8291 15.1112 95.8291 11.803C95.8291 8.4948 93.15 5.81299 89.8452 5.81299C86.5404 5.81299 83.8613 8.4948 83.8613 11.803C83.8613 15.1112 86.5404 17.793 89.8452 17.793Z" fill="#ECF0ED"/>
<path d="M284.738 275.352H125.037C123.973 275.35 122.952 274.926 122.199 274.173C121.446 273.419 121.022 272.397 121.021 271.331V79.7781C121.022 78.7122 121.446 77.6903 122.199 76.9366C122.952 76.1829 123.973 75.759 125.037 75.7578H284.738C285.803 75.759 286.824 76.183 287.577 76.9367C288.33 77.6904 288.753 78.7122 288.754 79.7781V271.331C288.753 272.397 288.329 273.419 287.577 274.173C286.824 274.926 285.803 275.35 284.738 275.352Z" fill="#F7F7F7"/>
<path d="M211.266 66.2983H111.808C109.678 66.3014 107.637 67.1495 106.131 68.6567C104.626 70.1639 103.778 72.2073 103.775 74.3389V267.217L104.72 266.928V74.3389C104.723 72.458 105.47 70.6548 106.799 69.3248C108.127 67.9948 109.929 67.2466 111.808 67.2443H211.559L211.266 66.2983ZM297.968 66.2983H111.808C109.678 66.3014 107.637 67.1495 106.131 68.6567C104.626 70.1639 103.778 72.2073 103.775 74.3389V290.96C103.778 293.091 104.626 295.135 106.131 296.642C107.637 298.149 109.678 298.997 111.808 299H297.968C300.097 298.997 302.138 298.149 303.644 296.642C305.15 295.135 305.997 293.091 306 290.96V74.3389C305.997 72.2073 305.15 70.1639 303.644 68.6567C302.138 67.1495 300.097 66.3014 297.968 66.2983ZM305.055 290.96C305.053 292.841 304.305 294.644 302.977 295.974C301.648 297.304 299.847 298.052 297.968 298.054H111.808C109.929 298.052 108.127 297.304 106.799 295.974C105.47 294.644 104.723 292.841 104.72 290.96V74.3389C104.723 72.458 105.47 70.6548 106.799 69.3248C108.127 67.9948 109.929 67.2466 111.808 67.2443H297.968C299.847 67.2466 301.648 67.9948 302.977 69.3248C304.305 70.6548 305.053 72.458 305.055 74.3389V290.96Z" fill="#7A8499"/>
<path d="M248.357 87.1089H161.419C160.291 87.1076 159.211 86.6587 158.413 85.8607C157.616 85.0627 157.168 83.9807 157.167 82.8521V62.0414C157.168 60.9128 157.616 59.8309 158.413 59.0328C159.211 58.2348 160.291 57.7859 161.419 57.7847H248.357C249.484 57.7859 250.565 58.2348 251.362 59.0328C252.159 59.8309 252.608 60.9128 252.609 62.0414V82.8521C252.608 83.9807 252.159 85.0627 251.362 85.8607C250.565 86.6587 249.484 87.1076 248.357 87.1089Z" fill="#41644A"/>
<path d="M204.888 59.2035C210.107 59.2035 214.337 54.9684 214.337 49.7441C214.337 44.5198 210.107 40.2847 204.888 40.2847C199.669 40.2847 195.438 44.5198 195.438 49.7441C195.438 54.9684 199.669 59.2035 204.888 59.2035Z" fill="#41644A"/>
<path d="M204.888 55.5058C208.066 55.5058 210.643 52.9262 210.643 49.7441C210.643 46.562 208.066 43.9824 204.888 43.9824C201.709 43.9824 199.132 46.562 199.132 49.7441C199.132 52.9262 201.709 55.5058 204.888 55.5058Z" fill="#ECF0ED"/>
</g>
<defs>
<clipPath id="clip0_40_5023">
<rect width="306" height="299" fill="white"/>
</clipPath>
</defs>
</svg>
