<svg width="78" height="19" viewBox="0 0 78 19" fill="none" xmlns="http://www.w3.org/2000/svg">
<path d="M29.4001 8.09961C29.2001 9.59961 28.0001 9.59961 26.9001 9.59961H26.3L26.8 6.69961C26.8 6.49961 27 6.39961 27.2 6.39961H27.5001C28.3001 6.39961 29.0001 6.39961 29.4001 6.79961C29.4001 7.19961 29.4001 7.59961 29.4001 8.09961ZM28.9001 4.09961H24.6001C24.3001 4.09961 24.1001 4.29961 24.0001 4.59961L22.3 15.5996C22.3 15.7996 22.4001 15.9996 22.7001 15.9996H24.7001C25.0001 15.9996 25.2 15.7996 25.3 15.4996L25.8 12.4996C25.8 12.1996 26.1001 11.9996 26.4001 11.9996H27.8C30.6 11.9996 32.2 10.5996 32.7 7.89961C32.9 6.69961 32.7 5.79961 32.2 5.09961C31.4 4.49961 30.3001 4.09961 28.9001 4.09961Z" fill="#7A8499"/>
<path d="M38.8 12.1004C38.6 13.3004 37.7 14.1004 36.5 14.1004C35.9 14.1004 35.4 13.9004 35.1 13.5004C34.8 13.1004 34.7 12.6004 34.8 12.1004C35 10.9004 35.9 10.1004 37.1 10.1004C37.7 10.1004 38.2 10.3004 38.5 10.7004C38.7 11.0004 38.9 11.5004 38.8 12.1004ZM41.6 8.10039H39.6C39.4 8.10039 39.3 8.20039 39.2 8.40039L39.1 9.00039L39 8.80039C38.6 8.20039 37.6 7.90039 36.6 7.90039C34.3 7.90039 32.4 9.60039 32 12.0004C31.8 13.2004 32.1 14.3004 32.8 15.1004C33.4 15.8004 34.3 16.1004 35.4 16.1004C37.2 16.1004 38.2 14.9004 38.2 14.9004L38.1 15.5004C38.1 15.7004 38.2 15.9004 38.5 15.9004H40.3C40.6 15.9004 40.8 15.7004 40.9 15.4004L42 8.40039C42 8.30039 41.9 8.10039 41.6 8.10039Z" fill="#7A8499"/>
<path d="M52.5002 8.09961H50.4002C50.2002 8.09961 50.0002 8.19961 49.9002 8.39961L47.1002 12.5996L45.9002 8.59961C45.8002 8.29961 45.6002 8.19961 45.3002 8.19961H43.3002C43.1002 8.19961 42.9002 8.39961 43.0002 8.69961L45.3002 15.2996L43.2002 18.2996C43.0002 18.4996 43.2002 18.8996 43.5002 18.8996H45.6002C45.8002 18.8996 46.0002 18.7996 46.1002 18.5996L52.9002 8.69961C53.0002 8.39961 52.8002 8.09961 52.5002 8.09961Z" fill="#7A8499"/>
<path d="M59.8 8.09961C59.6 9.59961 58.4 9.59961 57.3 9.59961H56.7L57.2 6.69961C57.2 6.49961 57.4 6.39961 57.6 6.39961H57.9C58.7 6.39961 59.4 6.39961 59.8 6.79961C59.9 7.19961 59.9 7.59961 59.8 8.09961ZM59.3 4.09961H55C54.7 4.09961 54.5 4.29961 54.4 4.59961L52.7 15.5996C52.7 15.7996 52.8 15.9996 53.1 15.9996H55.3C55.5 15.9996 55.7 15.8996 55.7 15.5996L56.2 12.4996C56.2 12.1996 56.5 11.9996 56.8 11.9996H58.2C61 11.9996 62.6 10.5996 63.1 7.89961C63.3 6.69961 63.1 5.79961 62.6 5.09961C61.9 4.49961 60.8 4.09961 59.3 4.09961Z" fill="#7A8499"/>
<path d="M69.3 12.1004C69.1 13.3004 68.2 14.1004 67 14.1004C66.4 14.1004 65.9 13.9004 65.6 13.5004C65.3 13.1004 65.2 12.6004 65.3 12.1004C65.5 10.9004 66.4 10.1004 67.6 10.1004C68.2 10.1004 68.7 10.3004 69 10.7004C69.2 11.0004 69.4 11.5004 69.3 12.1004ZM72.1 8.10039H70.1C69.9 8.10039 69.8 8.20039 69.7 8.40039L69.6 9.00039L69.5 8.80039C69.1 8.20039 68.1 7.90039 67.1 7.90039C64.8 7.90039 62.9 9.60039 62.5 12.0004C62.3 13.2004 62.6 14.3004 63.3 15.1004C63.9 15.8004 64.8 16.1004 65.9 16.1004C67.7 16.1004 68.7 14.9004 68.7 14.9004L68.6 15.5004C68.6 15.7004 68.7 15.9004 69 15.9004H70.8C71.1 15.9004 71.3 15.7004 71.4 15.4004L72.5 8.40039C72.5 8.30039 72.3 8.10039 72.1 8.10039Z" fill="#7A8499"/>
<path d="M74.5 4.39961L72.7 15.5996C72.7 15.7996 72.8 15.9996 73.1 15.9996H74.9C75.2 15.9996 75.4 15.7996 75.5 15.4996L77.2 4.49961C77.2 4.29961 77.1 4.09961 76.8 4.09961H74.8C74.7 4.09961 74.6 4.29961 74.5 4.39961Z" fill="#7A8499"/>
<path d="M4.50011 18.0996L4.80009 15.9996H4.1001H0.600098L3.00011 0.699608C3.00011 0.699608 3.0001 0.599609 3.1001 0.599609H3.2001H9.1001C11.0001 0.599609 12.4001 0.99961 13.1001 1.79961C13.4001 2.19961 13.6001 2.59961 13.7001 2.99961C13.8001 3.49961 13.8001 3.99961 13.7001 4.69961V5.09961L14.0001 5.29961C14.3001 5.39961 14.5001 5.59961 14.7001 5.79961C15.0001 6.09961 15.2001 6.49961 15.2001 6.99961C15.3001 7.49961 15.3001 8.09961 15.1001 8.79961C14.9001 9.59961 14.7001 10.1996 14.4001 10.7996C14.1001 11.2996 13.7001 11.6996 13.3001 12.0996C12.9001 12.3996 12.3001 12.5996 11.8001 12.7996C11.2001 12.8996 10.6001 12.9996 9.9001 12.9996H9.4001C9.1001 12.9996 8.80011 13.0996 8.50011 13.2996C8.30011 13.4996 8.10011 13.7996 8.00011 14.0996V14.2996L7.4001 17.9996V18.0996V18.1996C7.4001 18.1996 7.40009 18.1996 7.30009 18.1996H4.50011V18.0996Z" fill="#263577"/>
<path d="M14.3999 4.7002C14.3999 4.8002 14.3999 4.9002 14.2999 5.0002C13.4999 9.0002 10.8999 10.3002 7.49991 10.3002H5.7999C5.3999 10.3002 4.99991 10.6002 4.99991 11.0002L4.0999 16.6002L3.8999 18.2002C3.8999 18.5002 4.0999 18.7002 4.2999 18.7002H7.3999C7.7999 18.7002 8.0999 18.4002 8.0999 18.1002V17.9002L8.69991 14.3002V14.1002C8.79991 13.7002 9.0999 13.5002 9.3999 13.5002H9.8999C12.8999 13.5002 15.1999 12.3002 15.7999 8.8002C16.0999 7.3002 15.8999 6.1002 15.1999 5.3002C14.9999 5.1002 14.6999 4.9002 14.3999 4.7002Z" fill="#2199D6"/>
<path d="M13.6 4.39961C13.5 4.39961 13.4 4.29961 13.2 4.29961C13.1 4.29961 12.9 4.19961 12.8 4.19961C12.3 4.09961 11.8 4.09961 11.3 4.09961H6.7C6.6 4.09961 6.49999 4.09961 6.39999 4.19961C6.19999 4.29961 6 4.49961 6 4.69961L5 10.8996V11.0996C5.1 10.6996 5.39999 10.3996 5.79999 10.3996H7.5C10.9 10.3996 13.5 8.99961 14.3 5.09961C14.3 4.99961 14.3 4.89961 14.4 4.79961C14.2 4.69961 14 4.59961 13.8 4.49961C13.7 4.39961 13.6 4.39961 13.6 4.39961Z" fill="#252C5E"/>
<path d="M6 4.7C6 4.5 6.19999 4.3 6.39999 4.2C6.49999 4.2 6.6 4.1 6.7 4.1H11.3C11.8 4.1 12.4 4.1 12.8 4.2C12.9 4.2 13.1 4.2 13.2 4.3C13.3 4.3 13.4 4.4 13.6 4.4C13.7 4.4 13.7 4.4 13.8 4.5C14 4.6 14.2 4.7 14.4 4.8C14.6 3.3 14.4 2.3 13.6 1.4C12.7 0.399998 11.1 0 9.09999 0H3.2C2.8 0 2.39999 0.299997 2.39999 0.699997L0 16.1C0 16.4 0.2 16.7 0.5 16.7H4.09999L5 10.9L6 4.7Z" fill="#263577"/>
</svg>
