<svg width="24" height="24" viewBox="0 0 24 24" fill="none" xmlns="http://www.w3.org/2000/svg">
<path d="M13.5 4.00049C11.1568 6.34364 11.5176 10.518 11.5176 10.518C11.5176 10.518 15.6568 10.8436 18 8.50049C20.3431 6.15734 20.0029 2.01803 20.0029 2.01803C20.0029 2.01803 15.8431 1.65735 13.5 4.00049Z" fill="#8DA292"/>
<path d="M11.5176 10.518C11.5176 10.518 11.1568 6.34364 13.5 4.00049C15.8431 1.65735 20.0029 2.01803 20.0029 2.01803C20.0029 2.01803 20.3431 6.15734 18 8.50049C15.6568 10.8436 11.5176 10.518 11.5176 10.518ZM11.5176 10.518L15.5 6.53559" stroke="white" stroke-width="2" stroke-linecap="round" stroke-linejoin="round"/>
<path d="M10 10.4997C11.9246 12.4214 11.4856 15.9853 11.4856 15.9853C11.4856 15.9853 7.92459 16.4214 6.00004 14.4997C4.07547 12.578 4.51613 9.01419 4.51613 9.01419C4.51613 9.01419 8.07548 8.57804 10 10.4997Z" fill="#8DA292"/>
<path d="M11.4856 15.9853C11.4856 15.9853 11.9246 12.4214 10 10.4997C8.07549 8.57804 4.51613 9.01419 4.51613 9.01419C4.51613 9.01419 4.07547 12.578 6.00004 14.4997C7.92459 16.4214 11.4856 15.9853 11.4856 15.9853ZM11.4856 15.9853L8.00004 12.4997" stroke="white" stroke-width="2" stroke-linecap="round" stroke-linejoin="round"/>
<path d="M11.5 2V22" stroke="white" stroke-width="2" stroke-linecap="round" stroke-linejoin="round"/>
</svg>
