<svg width="28" height="28" viewBox="0 0 28 28" fill="none" xmlns="http://www.w3.org/2000/svg">
<path d="M7.58325 4.66665C5.97242 4.66665 4.66659 5.97248 4.66659 7.58331V8.16665C4.66659 8.81097 4.14425 9.33331 3.49992 9.33331C2.85559 9.33331 2.33325 8.81097 2.33325 8.16665V7.58331C2.33325 4.68382 4.68376 2.33331 7.58325 2.33331H8.16658C8.81091 2.33331 9.33325 2.85565 9.33325 3.49998C9.33325 4.14431 8.81091 4.66665 8.16658 4.66665H7.58325Z" fill="white"/>
<path fill-rule="evenodd" clip-rule="evenodd" d="M12.7864 7C12.0097 6.99998 11.3568 6.99997 10.8227 7.04361C10.2642 7.08924 9.73337 7.18834 9.22953 7.44506C8.46121 7.83654 7.83653 8.46122 7.44506 9.22954C7.18834 9.73337 7.08924 10.2642 7.04361 10.8227C7.02284 11.0769 7.01196 11.3581 7.00625 11.6667H4.66667C4.02234 11.6667 3.5 12.189 3.5 12.8333C3.5 13.4777 4.02234 14 4.66667 14H23.3333C23.9777 14 24.5 13.4777 24.5 12.8333C24.5 12.189 23.9777 11.6667 23.3333 11.6667H20.9937C20.9881 11.3581 20.9771 11.0769 20.9564 10.8227C20.9107 10.2642 20.8117 9.73337 20.5549 9.22954C20.1635 8.46122 19.5388 7.83654 18.7705 7.44506C18.2666 7.18834 17.7358 7.08924 17.1773 7.04361C16.6432 6.99997 15.9903 6.99998 15.2136 7H12.7864ZM18.66 11.6667C18.655 11.415 18.6462 11.2013 18.6308 11.0127C18.597 10.5985 18.5372 10.4089 18.4759 10.2888C18.3082 9.95957 18.0404 9.69185 17.7112 9.52407C17.5911 9.46289 17.4015 9.40304 16.9874 9.3692C16.5594 9.33424 16.0027 9.33333 15.1667 9.33333H12.8333C11.9973 9.33333 11.4405 9.33424 11.0127 9.3692C10.5985 9.40304 10.4089 9.46289 10.2888 9.52407C9.95956 9.69185 9.69185 9.95957 9.52407 10.2888C9.46289 10.4089 9.40304 10.5985 9.3692 11.0127C9.35378 11.2013 9.34499 11.415 9.33997 11.6667H18.66Z" fill="white"/>
<path d="M16.4217 21H12.7864C12.0098 21 11.3568 21 10.8227 20.9564C10.2642 20.9108 9.73337 20.8117 9.22953 20.5549C8.46121 20.1635 7.83654 19.5388 7.44506 18.7705C7.40229 18.6865 7.37949 18.6474 7.34997 18.5968C7.33167 18.5654 7.31079 18.5296 7.28097 18.4759C7.20121 18.3324 7.11487 18.1516 7.0633 17.899C7.02119 17.6926 7.01044 17.4748 7.00531 17.2609C7 17.0401 7 16.7443 7 16.3519V16.3334C7 15.689 7.52234 15.1667 8.16667 15.1667C8.81101 15.1667 9.33333 15.689 9.33333 16.3334C9.33333 16.7485 9.33342 17.0156 9.33797 17.2047C9.3401 17.2935 9.3431 17.3507 9.34555 17.3858C9.38365 17.4516 9.45736 17.5803 9.52407 17.7112C9.69185 18.0404 9.95956 18.3082 10.2888 18.4759C10.4089 18.5372 10.5985 18.597 11.0127 18.6309C11.4405 18.6658 11.9973 18.6667 12.8333 18.6667H16.3333C16.9198 18.6667 17.0772 18.6631 17.1905 18.6451C17.9393 18.5266 18.5266 17.9393 18.6451 17.1905C18.6631 17.0772 18.6667 16.9198 18.6667 16.3334C18.6667 15.689 19.189 15.1667 19.8333 15.1667C20.4777 15.1667 21 15.689 21 16.3334V16.4217C21.0002 16.8767 21.0004 17.2357 20.9497 17.5554C20.673 19.3026 19.3026 20.673 17.5554 20.9497C17.2356 21.0004 16.8767 21.0003 16.4217 21Z" fill="white"/>
<path d="M25.6667 19.8334C25.6667 19.189 25.1444 18.6667 24.5001 18.6667C23.8557 18.6667 23.3334 19.189 23.3334 19.8334V20.4167C23.3334 22.0275 22.0276 23.3334 20.4167 23.3334H19.8334C19.1891 23.3334 18.6667 23.8557 18.6667 24.5C18.6667 25.1444 19.1891 25.6667 19.8334 25.6667H20.4167C23.3163 25.6667 25.6667 23.3162 25.6667 20.4167V19.8334Z" fill="white"/>
<path d="M18.6667 3.49998C18.6667 2.85565 19.1891 2.33331 19.8334 2.33331H20.4167C23.3163 2.33331 25.6667 4.68382 25.6667 7.58331V8.16665C25.6667 8.81097 25.1444 9.33331 24.5001 9.33331C23.8557 9.33331 23.3334 8.81097 23.3334 8.16665V7.58331C23.3334 5.97248 22.0276 4.66665 20.4167 4.66665H19.8334C19.1891 4.66665 18.6667 4.14431 18.6667 3.49998Z" fill="white"/>
<path d="M4.66659 19.8334C4.66659 19.189 4.14425 18.6667 3.49992 18.6667C2.85559 18.6667 2.33325 19.189 2.33325 19.8334V20.4167C2.33325 23.3162 4.68376 25.6667 7.58325 25.6667H8.16658C8.81091 25.6667 9.33325 25.1444 9.33325 24.5C9.33325 23.8557 8.81091 23.3334 8.16658 23.3334H7.58325C5.97242 23.3334 4.66659 22.0275 4.66659 20.4167V19.8334Z" fill="white"/>
</svg>
