<svg width="20" height="20" viewBox="0 0 20 20" fill="none" xmlns="http://www.w3.org/2000/svg">
<path d="M8.19785 2.03999C8.92468 0.52975 11.0753 0.529749 11.8022 2.03999L13.249 5.04636C13.5361 5.64294 14.0999 6.05878 14.7547 6.15694L18.0756 6.65479C19.6997 6.89826 20.3544 8.88701 19.1926 10.0476L16.7291 12.5086C16.2716 12.9656 16.0633 13.6156 16.17 14.2534L16.7421 17.675C17.0165 19.3158 15.2843 20.5549 13.8201 19.7651L10.9494 18.2167C10.3568 17.8971 9.64317 17.8971 9.05056 18.2167L6.17991 19.7651C4.71568 20.5549 2.98347 19.3158 3.25786 17.675L3.83002 14.2534C3.93668 13.6156 3.72839 12.9656 3.2709 12.5086L0.807404 10.0476C-0.354406 8.88701 0.30032 6.89826 1.92438 6.65479L5.24533 6.15694C5.9001 6.05878 6.46385 5.64295 6.75097 5.04636L8.19785 2.03999Z" fill="#41644A"/>
</svg>
