<svg width="32" height="32" viewBox="0 0 32 32" fill="none" xmlns="http://www.w3.org/2000/svg">
<path d="M26.5507 7.09602C26.8022 7.09812 27.0483 7.16897 27.2624 7.30092C27.4765 7.43286 27.6505 7.62086 27.7654 7.84457C27.8804 8.06827 27.9319 8.31916 27.9145 8.57006C27.8971 8.82097 27.8114 9.06233 27.6667 9.26802L26.2773 11.2427C26.192 18.024 23.924 22.628 19.536 24.928C17.445 25.9672 15.1346 26.4881 12.8 26.4467C9.91316 26.5131 7.06044 25.8118 4.53334 24.4147C4.36334 24.3004 4.23195 24.1374 4.1565 23.9469C4.08105 23.7565 4.06507 23.5477 4.11067 23.348C4.15337 23.1454 4.2565 22.9604 4.40647 22.8176C4.55644 22.6748 4.74618 22.5808 4.95067 22.548C6.64833 22.3109 8.32007 21.9154 9.94401 21.3667C2.66667 18 4.25334 10.432 4.94667 8.10802C5.01426 7.87729 5.14136 7.66841 5.31519 7.50232C5.48903 7.33623 5.70349 7.21879 5.93706 7.16179C6.17062 7.10478 6.41508 7.11021 6.64588 7.17754C6.87668 7.24486 7.08572 7.37171 7.25201 7.54535C9.38219 9.74032 12.2066 11.1301 15.2453 11.4787C15.1914 10.6621 15.3176 9.84358 15.6151 9.08116C15.9126 8.31874 16.374 7.63102 16.9667 7.06669C17.9935 6.09224 19.3565 5.55122 20.772 5.55619C22.1876 5.56115 23.5467 6.11173 24.5667 7.09335L26.5507 7.09602ZM6.02801 23.7254C8.51067 24.888 14.3293 26.1507 18.9173 23.7467C22.8573 21.6814 24.8853 17.4374 24.9453 11.132C24.948 10.9235 25.0141 10.7208 25.1347 10.5507L26.576 8.50002L26.5213 8.42935C25.8307 8.42002 25.1493 8.41069 24.4547 8.42935C24.1838 8.42315 23.9245 8.31838 23.7253 8.13469C22.9578 7.35667 21.9157 6.91078 20.823 6.89283C19.7302 6.87488 18.674 7.2863 17.8813 8.03869C17.3722 8.52291 16.9917 9.12627 16.774 9.79434C16.5564 10.4624 16.5085 11.1742 16.6347 11.8654C16.6579 11.9941 16.6515 12.1265 16.6159 12.2524C16.5803 12.3783 16.5165 12.4944 16.4293 12.592C16.3458 12.6904 16.2394 12.7668 16.1194 12.8145C15.9995 12.8622 15.8696 12.8796 15.7413 12.8654C12.159 12.6154 8.79521 11.0508 6.29601 8.47202C5.40267 11.2427 4.26934 17.9307 11.4547 20.5587C11.6059 20.6129 11.7384 20.7093 11.8367 20.8364C11.935 20.9635 11.9949 21.116 12.0093 21.276C12.0256 21.4336 11.9966 21.5925 11.9258 21.7342C11.8549 21.8759 11.7452 21.9945 11.6093 22.076C9.85351 22.9322 7.9672 23.4897 6.02801 23.7254Z" fill="#41644A"/>
</svg>
